<?xml version="1.0" encoding="UTF-8" standalone="no"?>
<!DOCTYPE svg PUBLIC "-//W3C//DTD SVG 1.1//EN"
 "http://www.w3.org/Graphics/SVG/1.1/DTD/svg11.dtd">
<!-- Generated by graphviz version 2.46.0 (20210119.1425)
 -->
<!-- Title: dependencies Pages: 1 -->
<svg width="1669pt" height="284pt"
 viewBox="0.00 0.00 1669.00 284.00" xmlns="http://www.w3.org/2000/svg" xmlns:xlink="http://www.w3.org/1999/xlink">
<g id="graph0" class="graph" transform="scale(1 1) rotate(0) translate(4 280)">
<title>dependencies</title>
<polygon fill="white" stroke="transparent" points="-4,4 -4,-280 1665,-280 1665,4 -4,4"/>
<text text-anchor="start" x="809.51" y="-42.4" font-family="sans-serif" font-weight="bold" font-size="14.00">Legend</text>
<polygon fill="#ffffb3" stroke="transparent" points="596.5,-10 596.5,-30 616.5,-30 616.5,-10 596.5,-10"/>
<text text-anchor="start" x="620.13" y="-15.4" font-family="sans-serif" font-size="14.00"> &#160;Declarations</text>
<polygon fill="#8dd3c7" stroke="transparent" points="709.5,-10 709.5,-30 729.5,-30 729.5,-10 709.5,-10"/>
<text text-anchor="start" x="733.23" y="-15.4" font-family="sans-serif" font-size="14.00"> &#160;Module</text>
<polygon fill="#80b1d3" stroke="transparent" points="795.5,-10 795.5,-30 815.5,-30 815.5,-10 795.5,-10"/>
<text text-anchor="start" x="819.28" y="-15.4" font-family="sans-serif" font-size="14.00"> &#160;Bootstrap</text>
<polygon fill="#fdb462" stroke="transparent" points="892.5,-10 892.5,-30 912.5,-30 912.5,-10 892.5,-10"/>
<text text-anchor="start" x="916.17" y="-15.4" font-family="sans-serif" font-size="14.00"> &#160;Providers</text>
<polygon fill="#fb8072" stroke="transparent" points="988.5,-10 988.5,-30 1008.5,-30 1008.5,-10 988.5,-10"/>
<text text-anchor="start" x="1012.23" y="-15.4" font-family="sans-serif" font-size="14.00"> &#160;Exports</text>
<g id="clust1" class="cluster">
<title>cluster_AppModule</title>
<polygon fill="none" stroke="black" stroke-dasharray="1,5" points="8,-70 8,-268 1653,-268 1653,-70 8,-70"/>
</g>
<g id="clust12" class="cluster">
<title>cluster_AppModule_bootstrap</title>
<polygon fill="none" stroke="black" points="816,-208 816,-260 940,-260 940,-208 816,-208"/>
</g>
<g id="clust13" class="cluster">
<title>cluster_AppModule_providers</title>
<polygon fill="none" stroke="black" points="1227,-78 1227,-130 1645,-130 1645,-78 1227,-78"/>
</g>
<g id="clust10" class="cluster">
<title>cluster_AppModule_imports</title>
<polygon fill="none" stroke="black" points="1075,-78 1075,-130 1219,-130 1219,-78 1075,-78"/>
</g>
<g id="clust2" class="cluster">
<title>cluster_AppModule_declarations</title>
<polygon fill="none" stroke="black" points="16,-78 16,-130 1067,-130 1067,-78 16,-78"/>
</g>
<!-- AppComponent -->
<g id="node1" class="node">
<title>AppComponent</title>
<polygon fill="#ffffb3" stroke="black" points="1058.94,-122 953.06,-122 953.06,-86 1058.94,-86 1058.94,-122"/>
<text text-anchor="middle" x="1006" y="-99.8" font-family="Times,serif" font-size="14.00">AppComponent</text>
</g>
<!-- AppModule -->
<g id="node8" class="node">
<title>AppModule</title>
<polygon fill="#8dd3c7" stroke="black" points="919.66,-187 916.66,-191 895.66,-191 892.66,-187 836.34,-187 836.34,-151 919.66,-151 919.66,-187"/>
<text text-anchor="middle" x="878" y="-164.8" font-family="Times,serif" font-size="14.00">AppModule</text>
</g>
<!-- AppComponent&#45;&gt;AppModule -->
<g id="edge1" class="edge">
<title>AppComponent&#45;&gt;AppModule</title>
<path fill="none" stroke="black" d="M1006,-122.24C1006,-137.57 1006,-157 1006,-157 1006,-157 929.91,-157 929.91,-157"/>
<polygon fill="black" stroke="black" points="929.91,-153.5 919.91,-157 929.91,-160.5 929.91,-153.5"/>
</g>
<!-- GameComponent -->
<g id="node2" class="node">
<title>GameComponent</title>
<polygon fill="#ffffb3" stroke="black" points="935.26,-122 820.74,-122 820.74,-86 935.26,-86 935.26,-122"/>
<text text-anchor="middle" x="878" y="-99.8" font-family="Times,serif" font-size="14.00">GameComponent</text>
</g>
<!-- GameComponent&#45;&gt;AppModule -->
<g id="edge2" class="edge">
<title>GameComponent&#45;&gt;AppModule</title>
<path fill="none" stroke="black" d="M878,-122.11C878,-122.11 878,-140.99 878,-140.99"/>
<polygon fill="black" stroke="black" points="874.5,-140.99 878,-150.99 881.5,-140.99 874.5,-140.99"/>
</g>
<!-- GameTabViewComponent -->
<g id="node3" class="node">
<title>GameTabViewComponent</title>
<polygon fill="#ffffb3" stroke="black" points="802.34,-122 635.66,-122 635.66,-86 802.34,-86 802.34,-122"/>
<text text-anchor="middle" x="719" y="-99.8" font-family="Times,serif" font-size="14.00">GameTabViewComponent</text>
</g>
<!-- GameTabViewComponent&#45;&gt;AppModule -->
<g id="edge3" class="edge">
<title>GameTabViewComponent&#45;&gt;AppModule</title>
<path fill="none" stroke="black" d="M719,-122.24C719,-137.57 719,-157 719,-157 719,-157 826.22,-157 826.22,-157"/>
<polygon fill="black" stroke="black" points="826.22,-160.5 836.22,-157 826.22,-153.5 826.22,-160.5"/>
</g>
<!-- IndexComponent -->
<g id="node4" class="node">
<title>IndexComponent</title>
<polygon fill="#ffffb3" stroke="black" points="617.71,-122 504.29,-122 504.29,-86 617.71,-86 617.71,-122"/>
<text text-anchor="middle" x="561" y="-99.8" font-family="Times,serif" font-size="14.00">IndexComponent</text>
</g>
<!-- IndexComponent&#45;&gt;AppModule -->
<g id="edge4" class="edge">
<title>IndexComponent&#45;&gt;AppModule</title>
<path fill="none" stroke="black" d="M561,-122.02C561,-139.37 561,-163 561,-163 561,-163 826.23,-163 826.23,-163"/>
<polygon fill="black" stroke="black" points="826.23,-166.5 836.23,-163 826.23,-159.5 826.23,-166.5"/>
</g>
<!-- LoginComponent -->
<g id="node5" class="node">
<title>LoginComponent</title>
<polygon fill="#ffffb3" stroke="black" points="486.28,-122 371.72,-122 371.72,-86 486.28,-86 486.28,-122"/>
<text text-anchor="middle" x="429" y="-99.8" font-family="Times,serif" font-size="14.00">LoginComponent</text>
</g>
<!-- LoginComponent&#45;&gt;AppModule -->
<g id="edge5" class="edge">
<title>LoginComponent&#45;&gt;AppModule</title>
<path fill="none" stroke="black" d="M429,-122.11C429,-141.34 429,-169 429,-169 429,-169 826.16,-169 826.16,-169"/>
<polygon fill="black" stroke="black" points="826.16,-172.5 836.16,-169 826.16,-165.5 826.16,-172.5"/>
</g>
<!-- ScoreTabComponent -->
<g id="node6" class="node">
<title>ScoreTabComponent</title>
<polygon fill="#ffffb3" stroke="black" points="353.47,-122 218.53,-122 218.53,-86 353.47,-86 353.47,-122"/>
<text text-anchor="middle" x="286" y="-99.8" font-family="Times,serif" font-size="14.00">ScoreTabComponent</text>
</g>
<!-- ScoreTabComponent&#45;&gt;AppModule -->
<g id="edge6" class="edge">
<title>ScoreTabComponent&#45;&gt;AppModule</title>
<path fill="none" stroke="black" d="M286,-122.28C286,-143.32 286,-175 286,-175 286,-175 825.9,-175 825.9,-175"/>
<polygon fill="black" stroke="black" points="825.9,-178.5 835.9,-175 825.9,-171.5 825.9,-178.5"/>
</g>
<!-- UserActionsBtnsComponent -->
<g id="node7" class="node">
<title>UserActionsBtnsComponent</title>
<polygon fill="#ffffb3" stroke="black" points="200.48,-122 23.52,-122 23.52,-86 200.48,-86 200.48,-122"/>
<text text-anchor="middle" x="112" y="-99.8" font-family="Times,serif" font-size="14.00">UserActionsBtnsComponent</text>
</g>
<!-- UserActionsBtnsComponent&#45;&gt;AppModule -->
<g id="edge7" class="edge">
<title>UserActionsBtnsComponent&#45;&gt;AppModule</title>
<path fill="none" stroke="black" d="M112,-122.25C112,-145.02 112,-181 112,-181 112,-181 826.27,-181 826.27,-181"/>
<polygon fill="black" stroke="black" points="826.27,-184.5 836.27,-181 826.27,-177.5 826.27,-184.5"/>
</g>
<!-- AppComponent  -->
<g id="node10" class="node">
<title>AppComponent </title>
<polygon fill="#80b1d3" stroke="black" points="932.44,-252 823.56,-252 823.56,-216 932.44,-216 932.44,-252"/>
<text text-anchor="middle" x="878" y="-229.8" font-family="Times,serif" font-size="14.00">AppComponent </text>
</g>
<!-- AppModule&#45;&gt;AppComponent  -->
<g id="edge9" class="edge">
<title>AppModule&#45;&gt;AppComponent </title>
<path fill="none" stroke="black" stroke-dasharray="1,5" d="M878,-187.11C878,-187.11 878,-205.99 878,-205.99"/>
<polygon fill="black" stroke="black" points="874.5,-205.99 878,-215.99 881.5,-205.99 874.5,-205.99"/>
</g>
<!-- AppRoutingModule -->
<g id="node9" class="node">
<title>AppRoutingModule</title>
<polygon fill="#8dd3c7" stroke="black" points="1211.27,-122 1208.27,-126 1187.27,-126 1184.27,-122 1082.73,-122 1082.73,-86 1211.27,-86 1211.27,-122"/>
<text text-anchor="middle" x="1147" y="-99.8" font-family="Times,serif" font-size="14.00">AppRoutingModule</text>
</g>
<!-- AppRoutingModule&#45;&gt;AppModule -->
<g id="edge8" class="edge">
<title>AppRoutingModule&#45;&gt;AppModule</title>
<path fill="none" stroke="black" d="M1147,-122.02C1147,-139.37 1147,-163 1147,-163 1147,-163 929.74,-163 929.74,-163"/>
<polygon fill="black" stroke="black" points="929.74,-159.5 919.74,-163 929.74,-166.5 929.74,-159.5"/>
</g>
<!-- GameService -->
<g id="node11" class="node">
<title>GameService</title>
<ellipse fill="#fdb462" stroke="black" cx="1574" cy="-104" rx="63.1" ry="18"/>
<text text-anchor="middle" x="1574" y="-99.8" font-family="Times,serif" font-size="14.00">GameService</text>
</g>
<!-- GameService&#45;&gt;AppModule -->
<g id="edge10" class="edge">
<title>GameService&#45;&gt;AppModule</title>
<path fill="none" stroke="black" d="M1574,-122.25C1574,-145.02 1574,-181 1574,-181 1574,-181 929.71,-181 929.71,-181"/>
<polygon fill="black" stroke="black" points="929.71,-177.5 919.71,-181 929.71,-184.5 929.71,-177.5"/>
</g>
<!-- ScoreService -->
<g id="node12" class="node">
<title>ScoreService</title>
<ellipse fill="#fdb462" stroke="black" cx="1431" cy="-104" rx="61.95" ry="18"/>
<text text-anchor="middle" x="1431" y="-99.8" font-family="Times,serif" font-size="14.00">ScoreService</text>
</g>
<!-- ScoreService&#45;&gt;AppModule -->
<g id="edge11" class="edge">
<title>ScoreService&#45;&gt;AppModule</title>
<path fill="none" stroke="black" d="M1431,-122.28C1431,-143.32 1431,-175 1431,-175 1431,-175 930.02,-175 930.02,-175"/>
<polygon fill="black" stroke="black" points="930.02,-171.5 920.02,-175 930.02,-178.5 930.02,-171.5"/>
</g>
<!-- UserService -->
<g id="node13" class="node">
<title>UserService</title>
<ellipse fill="#fdb462" stroke="black" cx="1293" cy="-104" rx="58.44" ry="18"/>
<text text-anchor="middle" x="1293" y="-99.8" font-family="Times,serif" font-size="14.00">UserService</text>
</g>
<!-- UserService&#45;&gt;AppModule -->
<g id="edge12" class="edge">
<title>UserService&#45;&gt;AppModule</title>
<path fill="none" stroke="black" d="M1293,-122.11C1293,-141.34 1293,-169 1293,-169 1293,-169 929.69,-169 929.69,-169"/>
<polygon fill="black" stroke="black" points="929.69,-165.5 919.69,-169 929.69,-172.5 929.69,-165.5"/>
</g>
</g>
</svg>
